# xmcd CD database file
#
# Track frame offsets:
#	150
#	14191
#	18774
#	36802
#	51761
#	69680
#	87409
#	103503
#	116647
#	136054
#	149536
#	163678
#	179740
#	196102
#	221462
#	237902
#	254476
#	268883
#	280674
#	295849
#	312428
#	330323
#
# Disc length: 4619 seconds
#
# Revision: 1
# Processed by: cddbd v1.5.2PL0 Copyright (c) Steve Scherf et al.
# Submitted via: CDex 1.51
#
DISCID=4d120916
DTITLE=Various Artist - CDX 472
DYEAR=2009
DGENRE=Country
TTITLE0=Joe Nichols - Beleivers
TTITLE1=Joe Nichols - Comments on recording Beleivers 
TTITLE2=Bucky Covington - I Want My Life Back
TTITLE3=Kenny Chesney - Out Last Night
TTITLE4=Richie McDonald - Six Foot Teddy Bear
TTITLE5=Lee Ann Womack - Solitary Thinkin'
TTITLE6=Emily West - That Kind Of Happy
TTITLE7=Gretchen Wilson - The Earrings Song
TTITLE8=Thae Parks - Where The Truth Lies
TTITLE9=Mac McAnally - You First
TTITLE10=John Anderson - Cold Coffee
TTITLE11=Kieth Burns with Michelle Poe - It's Always A Woman
TTITLE12=Kacey Jones - I Wanna Be Op Front Like Dolly
TTITLE13=The Time Jumpers - Route 66
TTITLE14=David Frizzell, Jimmy Fortune and Helen Cornelius - Someday
TTITLE15=The Roys - That's What You Do
TTITLE16=Chad Reilly - Coming On Strong
TTITLE17=Bulls Gap - It Doesn't Get Any Countryer Than This
TTITLE18=Aaron Watson - Rollercoaster Ride
TTITLE19=Jayne Nelsen - What It Really Is
TTITLE20=David Frizzell, Jimmy Fortune and Helen Cornelius - Try and Catch The Wind
TTITLE21=Mammoth Jack - Who Wouldn't Love A Gril Like That
EXTD=YEAR: 2009
EXTT0=
EXTT1=
EXTT2=
EXTT3=
EXTT4=
EXTT5=
EXTT6=
EXTT7=
EXTT8=
EXTT9=
EXTT10=
EXTT11=
EXTT12=
EXTT13=
EXTT14=
EXTT15=
EXTT16=
EXTT17=
EXTT18=
EXTT19=
EXTT20=
EXTT21=
PLAYORDER=
